<?xml version="1.0" standalone="no"?>
<!DOCTYPE svg PUBLIC "-//W3C//DTD SVG 20010904//EN"
 "http://www.w3.org/TR/2001/REC-SVG-20010904/DTD/svg10.dtd">
<svg version="1.0" xmlns="http://www.w3.org/2000/svg"
 width="544.000000pt" height="544.000000pt" viewBox="0 0 544.000000 544.000000"
 preserveAspectRatio="xMidYMid meet">
<metadata>
Created by potrace 1.14, written by Peter Selinger 2001-2017
</metadata>
<g transform="translate(0.000000,544.000000) scale(0.100000,-0.100000)"
fill="#000000" stroke="none">
<path d="M0 2720 l0 -2720 2720 0 2720 0 0 2720 0 2720 -2720 0 -2720 0 0
-2720z m3125 2661 c33 -5 109 -16 169 -25 60 -9 134 -23 165 -32 176 -51 232
-69 290 -91 36 -14 72 -29 80 -34 9 -4 70 -31 136 -59 66 -28 144 -66 175 -84
30 -17 75 -43 100 -56 76 -40 151 -99 232 -183 76 -78 148 -180 148 -210 0 -8
-32 -41 -70 -72 -39 -32 -79 -67 -88 -79 -9 -12 -74 -74 -144 -138 -96 -89
-131 -116 -145 -111 -10 3 -45 27 -78 53 -33 25 -114 79 -180 120 -66 40 -127
79 -135 85 -29 22 -160 75 -324 130 -245 82 -411 108 -671 108 -173 0 -220 -3
-350 -27 -235 -42 -540 -145 -670 -227 -233 -146 -296 -192 -433 -323 -167
-160 -354 -442 -440 -666 -81 -208 -116 -357 -133 -565 -43 -517 130 -1068
460 -1465 67 -80 66 -79 211 -211 190 -172 487 -336 730 -404 237 -66 454 -90
715 -82 266 10 451 42 680 118 84 29 301 137 354 178 24 18 59 40 77 47 47 20
105 73 120 111 11 25 14 100 14 311 0 154 -3 313 -6 355 l-7 77 -588 0 c-415
0 -590 3 -595 11 -3 6 -19 9 -35 7 -16 -3 -29 -1 -29 4 0 11 104 122 325 347
99 101 188 192 197 202 10 11 24 19 30 19 228 7 850 9 1081 4 l308 -6 -4 -627
c-3 -537 -6 -636 -20 -694 -61 -253 -138 -415 -291 -606 -82 -102 -98 -113
-390 -252 -290 -138 -313 -146 -566 -212 -184 -47 -265 -62 -400 -72 -47 -4
-98 -9 -115 -11 -129 -17 -545 2 -720 33 -49 8 -110 19 -135 23 -25 3 -72 15
-105 25 -196 59 -310 97 -362 121 -84 38 -292 143 -333 167 -98 57 -237 153
-279 190 -25 24 -68 60 -96 82 -72 57 -221 202 -264 256 -20 26 -72 92 -116
148 -87 109 -101 130 -181 268 -54 93 -142 279 -184 388 -13 33 -27 65 -31 70
-15 20 -91 332 -116 475 -44 259 -43 651 3 925 55 328 191 670 380 962 76 117
105 155 223 293 183 214 447 431 705 580 62 36 286 140 301 140 4 0 31 11 59
24 56 27 235 85 336 110 119 29 304 57 465 70 79 6 494 -3 560 -13z"/>
</g>
</svg>
